<svg xmlns="http://www.w3.org/2000/svg" xmlns:xlink="http://www.w3.org/1999/xlink" id="Layer_1" viewBox="0 0 150 150"><defs><style>      .st0 {        fill: url(#Naamloos_verloop_181);      }      .st1 {        fill: #737373;      }      .st2 {        fill: url(#Naamloos_verloop_2);      }      .st3 {        fill: #747474;      }      .st4 {        display: none;      }      .st5 {        fill: url(#Naamloos_verloop);      }      .st6 {        fill: url(#Naamloos_verloop_18);      }    </style><linearGradient id="Naamloos_verloop" data-name="Naamloos verloop" x1="36.98" y1="1267.77" x2="36.98" y2="1412.77" gradientTransform="translate(0 -1265.32)" gradientUnits="userSpaceOnUse"><stop offset="0" stop-color="#4b9a34"></stop><stop offset="1" stop-color="#9dc64c"></stop></linearGradient><linearGradient id="Naamloos_verloop_2" data-name="Naamloos verloop 2" x1="109.39" y1="1308.32" x2="109.39" y2="1340.62" gradientTransform="translate(0 -1265.32)" gradientUnits="userSpaceOnUse"><stop offset="0" stop-color="#4b9a34"></stop><stop offset="1" stop-color="#9dc64c"></stop></linearGradient><linearGradient id="Naamloos_verloop_18" data-name="Naamloos verloop 18" x1="36.92" y1="2.45" x2="36.92" y2="147.65" gradientUnits="userSpaceOnUse"><stop offset="0" stop-color="#2e729e"></stop><stop offset="1" stop-color="#7db4db"></stop></linearGradient><linearGradient id="Naamloos_verloop_181" data-name="Naamloos verloop 18" x1="109.3" y1="43.05" x2="109.3" y2="75.29" xlink:href="#Naamloos_verloop_18"></linearGradient></defs><g><path class="st6" d="M38.92,74.81l-28.95-16.86s-7.03-4.86-6.83-11.48v-8.17s26.06,14.99,26.06,14.99c0,0,2.48,1.65,3.52-.83s-.21-3.31-.21-3.31L3.14,32v-13.34l25.86,15.1s2.69,1.14,3.93-1.24c1.24-2.38-1.03-3.31-1.03-3.31L3.14,12.45v-7.45s1.04-4.03,6.62-1.96l52.74,30.71s8.89,4.76,8.17,18.1l.04,49.22s.37,9.2-7.49,14.27l-53.46,31.23s-6.73,3.72-6.62-2.69v-38.68s-.82-9,7.24-13.96l28.54-16.44Z"></path><path class="st1" d="M110.92,75.29l28.95,16.86s7.03,4.86,6.83,11.48v8.17s-26.06-14.99-26.06-14.99c0,0-2.48-1.65-3.52.83s.21,3.31.21,3.31l29.37,17.17v13.34s-25.86-15.1-25.86-15.1c0,0-2.69-1.14-3.93,1.24s1.03,3.31,1.03,3.31l28.75,16.75v7.45s-1.04,4.03-6.62,1.96l-52.74-30.71s-8.89-4.76-8.17-18.1l-.04-49.22s-.37-9.2,7.49-14.27L140.07,3.53s6.73-3.72,6.62,2.69v38.68s.82,9-7.24,13.96l-28.54,16.44Z"></path><path class="st0" d="M80.39,43.86s2.11,7.06,13.37,8.34l45.69,6.65-28.54,16.44-23.63-13.99s-8.48-5-8.13-13.32c0,0,.27-3.13,1.01-4.93l.23.81Z"></path><path class="st1" d="M69.47,105.94s-2.11-7.06-13.37-8.34l-46.12-6.08,28.95-16.7,23.65,13.68s8.48,5,8.13,13.32c0,0-.27,3.13-1.01,4.93l-.23-.81Z"></path></g></svg>